<mxfile host="app.diagrams.net" modified="2023-03-07T13:00:35.380Z" agent="5.0 (Windows)" etag="4VDYxzo6iyeyOU9fEXa3" version="21.0.2" type="github" pages="2">
  <diagram id="C5RBs43oDa-KdzZeNtuy" name="Page-1">
    <mxGraphModel dx="1707" dy="470" grid="1" gridSize="10" guides="1" tooltips="1" connect="1" arrows="1" fold="1" page="1" pageScale="1" pageWidth="827" pageHeight="1169" math="0" shadow="0">
      <root>
        <mxCell id="WIyWlLk6GJQsqaUBKTNV-0" />
        <mxCell id="WIyWlLk6GJQsqaUBKTNV-1" parent="WIyWlLk6GJQsqaUBKTNV-0" />
        <mxCell id="IVZTwrisoEuHubWYUr_b-1" value="responsable de formation" style="shape=umlActor;verticalLabelPosition=bottom;verticalAlign=top;html=1;" vertex="1" parent="WIyWlLk6GJQsqaUBKTNV-1">
          <mxGeometry x="10" y="60" width="30" height="70" as="geometry" />
        </mxCell>
        <mxCell id="IVZTwrisoEuHubWYUr_b-2" value="Gérer Programme de formation" style="ellipse;whiteSpace=wrap;html=1;" vertex="1" parent="WIyWlLk6GJQsqaUBKTNV-1">
          <mxGeometry x="270" y="10" width="140" height="60" as="geometry" />
        </mxCell>
        <mxCell id="IVZTwrisoEuHubWYUr_b-7" style="edgeStyle=orthogonalEdgeStyle;rounded=0;orthogonalLoop=1;jettySize=auto;html=1;" edge="1" parent="WIyWlLk6GJQsqaUBKTNV-1" source="IVZTwrisoEuHubWYUr_b-6">
          <mxGeometry relative="1" as="geometry">
            <mxPoint x="25" y="160" as="targetPoint" />
          </mxGeometry>
        </mxCell>
        <mxCell id="IVZTwrisoEuHubWYUr_b-6" value="&lt;div&gt;Administrateur&lt;/div&gt;&lt;div&gt;&lt;br&gt;&lt;/div&gt;" style="shape=umlActor;verticalLabelPosition=bottom;verticalAlign=top;html=1;" vertex="1" parent="WIyWlLk6GJQsqaUBKTNV-1">
          <mxGeometry x="10" y="350" width="30" height="60" as="geometry" />
        </mxCell>
        <mxCell id="IVZTwrisoEuHubWYUr_b-8" value="&lt;div&gt;Gérer Formation&lt;/div&gt;&lt;div&gt;&lt;br&gt;&lt;/div&gt;" style="ellipse;whiteSpace=wrap;html=1;" vertex="1" parent="WIyWlLk6GJQsqaUBKTNV-1">
          <mxGeometry x="220" y="90" width="140" height="70" as="geometry" />
        </mxCell>
        <mxCell id="IVZTwrisoEuHubWYUr_b-9" value="Gérer module de formation" style="ellipse;whiteSpace=wrap;html=1;" vertex="1" parent="WIyWlLk6GJQsqaUBKTNV-1">
          <mxGeometry x="320" y="180" width="140" height="70" as="geometry" />
        </mxCell>
        <mxCell id="IVZTwrisoEuHubWYUr_b-19" value="Gérer Formateur" style="ellipse;whiteSpace=wrap;html=1;" vertex="1" parent="WIyWlLk6GJQsqaUBKTNV-1">
          <mxGeometry x="220" y="280" width="140" height="70" as="geometry" />
        </mxCell>
        <mxCell id="IVZTwrisoEuHubWYUr_b-22" value="Gérer Beneficiaire" style="ellipse;whiteSpace=wrap;html=1;" vertex="1" parent="WIyWlLk6GJQsqaUBKTNV-1">
          <mxGeometry x="310" y="370" width="140" height="70" as="geometry" />
        </mxCell>
        <mxCell id="IVZTwrisoEuHubWYUr_b-24" value="Authentification" style="ellipse;whiteSpace=wrap;html=1;" vertex="1" parent="WIyWlLk6GJQsqaUBKTNV-1">
          <mxGeometry x="620" y="200" width="140" height="70" as="geometry" />
        </mxCell>
        <mxCell id="IVZTwrisoEuHubWYUr_b-26" value="include" style="endArrow=open;endSize=12;dashed=1;html=1;rounded=0;entryX=0.4;entryY=0.014;entryDx=0;entryDy=0;entryPerimeter=0;" edge="1" parent="WIyWlLk6GJQsqaUBKTNV-1" source="IVZTwrisoEuHubWYUr_b-2" target="IVZTwrisoEuHubWYUr_b-24">
          <mxGeometry x="-0.1136" y="-8" width="160" relative="1" as="geometry">
            <mxPoint x="560" y="120" as="sourcePoint" />
            <mxPoint x="720" y="120" as="targetPoint" />
            <Array as="points">
              <mxPoint x="600" y="150" />
            </Array>
            <mxPoint as="offset" />
          </mxGeometry>
        </mxCell>
        <mxCell id="IVZTwrisoEuHubWYUr_b-27" value="include" style="endArrow=open;endSize=12;dashed=1;html=1;rounded=0;exitX=1;exitY=0.5;exitDx=0;exitDy=0;" edge="1" parent="WIyWlLk6GJQsqaUBKTNV-1" source="IVZTwrisoEuHubWYUr_b-8" target="IVZTwrisoEuHubWYUr_b-24">
          <mxGeometry x="-0.1136" y="-8" width="160" relative="1" as="geometry">
            <mxPoint x="460" y="130" as="sourcePoint" />
            <mxPoint x="670" y="200" as="targetPoint" />
            <Array as="points">
              <mxPoint x="540" y="180" />
            </Array>
            <mxPoint as="offset" />
          </mxGeometry>
        </mxCell>
        <mxCell id="IVZTwrisoEuHubWYUr_b-28" value="include" style="endArrow=open;endSize=12;dashed=1;html=1;rounded=0;exitX=1;exitY=0.5;exitDx=0;exitDy=0;entryX=0.5;entryY=1;entryDx=0;entryDy=0;" edge="1" parent="WIyWlLk6GJQsqaUBKTNV-1" source="IVZTwrisoEuHubWYUr_b-22" target="IVZTwrisoEuHubWYUr_b-24">
          <mxGeometry x="-0.1136" y="-8" width="160" relative="1" as="geometry">
            <mxPoint x="570" y="362" as="sourcePoint" />
            <mxPoint x="760" y="280" as="targetPoint" />
            <Array as="points" />
            <mxPoint as="offset" />
          </mxGeometry>
        </mxCell>
        <mxCell id="IVZTwrisoEuHubWYUr_b-29" value="include" style="endArrow=open;endSize=12;dashed=1;html=1;rounded=0;exitX=0.993;exitY=0.329;exitDx=0;exitDy=0;exitPerimeter=0;" edge="1" parent="WIyWlLk6GJQsqaUBKTNV-1" source="IVZTwrisoEuHubWYUr_b-19" target="IVZTwrisoEuHubWYUr_b-24">
          <mxGeometry x="-0.1136" y="-8" width="160" relative="1" as="geometry">
            <mxPoint x="490" y="330" as="sourcePoint" />
            <mxPoint x="660" y="260" as="targetPoint" />
            <Array as="points">
              <mxPoint x="490" y="290" />
            </Array>
            <mxPoint as="offset" />
          </mxGeometry>
        </mxCell>
        <mxCell id="IVZTwrisoEuHubWYUr_b-30" value="include" style="endArrow=open;endSize=12;dashed=1;html=1;rounded=0;entryX=0;entryY=0.5;entryDx=0;entryDy=0;exitX=1;exitY=0.5;exitDx=0;exitDy=0;" edge="1" parent="WIyWlLk6GJQsqaUBKTNV-1" source="IVZTwrisoEuHubWYUr_b-9" target="IVZTwrisoEuHubWYUr_b-24">
          <mxGeometry x="-0.1136" y="-8" width="160" relative="1" as="geometry">
            <mxPoint x="540" y="220" as="sourcePoint" />
            <mxPoint x="630" y="240" as="targetPoint" />
            <Array as="points" />
            <mxPoint as="offset" />
          </mxGeometry>
        </mxCell>
        <mxCell id="oqZ-68Hrd_CaQDvWcss4-0" value="" style="endArrow=open;endFill=1;endSize=12;html=1;rounded=0;exitX=0.633;exitY=0.217;exitDx=0;exitDy=0;exitPerimeter=0;entryX=0;entryY=0.5;entryDx=0;entryDy=0;" edge="1" parent="WIyWlLk6GJQsqaUBKTNV-1" source="IVZTwrisoEuHubWYUr_b-6" target="IVZTwrisoEuHubWYUr_b-19">
          <mxGeometry width="160" relative="1" as="geometry">
            <mxPoint x="70" y="224.5" as="sourcePoint" />
            <mxPoint x="230" y="224.5" as="targetPoint" />
          </mxGeometry>
        </mxCell>
        <mxCell id="oqZ-68Hrd_CaQDvWcss4-1" value="" style="endArrow=open;endFill=1;endSize=12;html=1;rounded=0;" edge="1" parent="WIyWlLk6GJQsqaUBKTNV-1" target="IVZTwrisoEuHubWYUr_b-22">
          <mxGeometry width="160" relative="1" as="geometry">
            <mxPoint x="40" y="380" as="sourcePoint" />
            <mxPoint x="411" y="342" as="targetPoint" />
          </mxGeometry>
        </mxCell>
        <mxCell id="oqZ-68Hrd_CaQDvWcss4-2" value="" style="endArrow=open;endFill=1;endSize=12;html=1;rounded=0;entryX=0;entryY=0.7;entryDx=0;entryDy=0;entryPerimeter=0;" edge="1" parent="WIyWlLk6GJQsqaUBKTNV-1" source="IVZTwrisoEuHubWYUr_b-1" target="IVZTwrisoEuHubWYUr_b-2">
          <mxGeometry width="160" relative="1" as="geometry">
            <mxPoint x="140" y="100" as="sourcePoint" />
            <mxPoint x="331" y="52" as="targetPoint" />
          </mxGeometry>
        </mxCell>
        <mxCell id="oqZ-68Hrd_CaQDvWcss4-3" value="" style="endArrow=open;endFill=1;endSize=12;html=1;rounded=0;" edge="1" parent="WIyWlLk6GJQsqaUBKTNV-1" source="IVZTwrisoEuHubWYUr_b-1">
          <mxGeometry width="160" relative="1" as="geometry">
            <mxPoint x="140" y="110" as="sourcePoint" />
            <mxPoint x="210" y="110" as="targetPoint" />
          </mxGeometry>
        </mxCell>
        <mxCell id="oqZ-68Hrd_CaQDvWcss4-4" value="" style="endArrow=open;endFill=1;endSize=12;html=1;rounded=0;exitX=0.633;exitY=0.217;exitDx=0;exitDy=0;exitPerimeter=0;" edge="1" parent="WIyWlLk6GJQsqaUBKTNV-1" target="IVZTwrisoEuHubWYUr_b-9">
          <mxGeometry width="160" relative="1" as="geometry">
            <mxPoint x="50" y="118" as="sourcePoint" />
            <mxPoint x="300" y="110" as="targetPoint" />
          </mxGeometry>
        </mxCell>
      </root>
    </mxGraphModel>
  </diagram>
  <diagram id="IwuCIkHrxsePRLxfyS4X" name="Page-2">
    <mxGraphModel dx="1707" dy="470" grid="1" gridSize="10" guides="1" tooltips="1" connect="1" arrows="1" fold="1" page="1" pageScale="1" pageWidth="827" pageHeight="1169" math="0" shadow="0">
      <root>
        <mxCell id="0" />
        <mxCell id="1" parent="0" />
        <mxCell id="z8IvWy9g480SiGC0LEgv-1" value="Cas d&#39;utilisation Gérer Programme" style="text;strokeColor=none;align=center;fillColor=none;html=1;verticalAlign=middle;whiteSpace=wrap;rounded=0;fontSize=24;" vertex="1" parent="1">
          <mxGeometry x="200" y="10" width="390" height="30" as="geometry" />
        </mxCell>
        <mxCell id="z8IvWy9g480SiGC0LEgv-2" value="&lt;div&gt;Responsable &lt;br&gt;&lt;/div&gt;&lt;div&gt;de formation&lt;br&gt;&lt;/div&gt;" style="shape=umlActor;verticalLabelPosition=bottom;verticalAlign=top;html=1;" vertex="1" parent="1">
          <mxGeometry x="20" y="170" width="30" height="60" as="geometry" />
        </mxCell>
        <mxCell id="z8IvWy9g480SiGC0LEgv-3" value="Ajouter un Programme" style="ellipse;whiteSpace=wrap;html=1;" vertex="1" parent="1">
          <mxGeometry x="344" y="70" width="140" height="60" as="geometry" />
        </mxCell>
        <mxCell id="z8IvWy9g480SiGC0LEgv-5" value="Consulter les Programmes" style="ellipse;whiteSpace=wrap;html=1;" vertex="1" parent="1">
          <mxGeometry x="450" y="150" width="140" height="70" as="geometry" />
        </mxCell>
        <mxCell id="z8IvWy9g480SiGC0LEgv-7" value="Modifier un Programme" style="ellipse;whiteSpace=wrap;html=1;" vertex="1" parent="1">
          <mxGeometry x="402.5" y="240" width="140" height="60" as="geometry" />
        </mxCell>
        <mxCell id="z8IvWy9g480SiGC0LEgv-8" value="Supprimer un Programme" style="ellipse;whiteSpace=wrap;html=1;" vertex="1" parent="1">
          <mxGeometry x="400" y="360" width="145" height="70" as="geometry" />
        </mxCell>
        <mxCell id="z8IvWy9g480SiGC0LEgv-10" value="" style="endArrow=open;endFill=1;endSize=12;html=1;rounded=0;exitX=0.933;exitY=0.867;exitDx=0;exitDy=0;exitPerimeter=0;" edge="1" parent="1" source="z8IvWy9g480SiGC0LEgv-2">
          <mxGeometry width="160" relative="1" as="geometry">
            <mxPoint x="120" y="260" as="sourcePoint" />
            <mxPoint x="390" y="360" as="targetPoint" />
          </mxGeometry>
        </mxCell>
        <mxCell id="z8IvWy9g480SiGC0LEgv-11" value="" style="endArrow=open;endFill=1;endSize=12;html=1;rounded=0;exitX=0.667;exitY=0.75;exitDx=0;exitDy=0;exitPerimeter=0;entryX=0;entryY=0.333;entryDx=0;entryDy=0;entryPerimeter=0;" edge="1" parent="1" source="z8IvWy9g480SiGC0LEgv-2" target="z8IvWy9g480SiGC0LEgv-7">
          <mxGeometry width="160" relative="1" as="geometry">
            <mxPoint x="110" y="160" as="sourcePoint" />
            <mxPoint x="452" y="298" as="targetPoint" />
          </mxGeometry>
        </mxCell>
        <mxCell id="z8IvWy9g480SiGC0LEgv-12" value="" style="endArrow=open;endFill=1;endSize=12;html=1;rounded=0;" edge="1" parent="1" source="z8IvWy9g480SiGC0LEgv-2">
          <mxGeometry width="160" relative="1" as="geometry">
            <mxPoint x="270" y="150" as="sourcePoint" />
            <mxPoint x="450" y="180" as="targetPoint" />
          </mxGeometry>
        </mxCell>
        <mxCell id="z8IvWy9g480SiGC0LEgv-13" value="" style="endArrow=open;endFill=1;endSize=12;html=1;rounded=0;exitX=0.6;exitY=0.3;exitDx=0;exitDy=0;exitPerimeter=0;" edge="1" parent="1" source="z8IvWy9g480SiGC0LEgv-2">
          <mxGeometry width="160" relative="1" as="geometry">
            <mxPoint x="160" y="90" as="sourcePoint" />
            <mxPoint x="340" y="100" as="targetPoint" />
          </mxGeometry>
        </mxCell>
      </root>
    </mxGraphModel>
  </diagram>
</mxfile>
